<svg width="46" height="42" viewBox="0 0 46 42" fill="none" xmlns="http://www.w3.org/2000/svg">
<path d="M12.2667 2.8C-0.133334 9.2 -4 27.3333 4.8 37.8667L8.13333 41.8667L12.4 37.0667C15.7333 33.4667 17.8667 32.4 21.6 32.2667C27.6 32.1333 32.4 34.5333 34.8 38.8C36.4 41.8667 36.5333 41.8667 39.0667 39.7333C42.8 36.4 45.3333 29.7333 45.3333 23.3333C45.3333 10.5333 37.0667 1.86667 24.2667 1.06667C19.0667 0.666671 15.3333 1.33334 12.2667 2.8ZM28.2667 16.2667C31.2 18.9333 31.3333 23.0667 28.4 26.2667C24.1333 31.0667 14.6667 27.8667 14.6667 21.6C14.6667 15.0667 23.2 11.6 28.2667 16.2667Z" fill="#CD191E"/>
</svg>
