<?xml version="1.0" encoding="UTF-8" standalone="no"?>
<!-- Created with Inkscape (http://www.inkscape.org/) -->

<svg
   width="8.4328432mm"
   height="10.399048mm"
   viewBox="0 0 8.4328432 10.399048"
   version="1.1"
   id="svg5"
   inkscape:version="1.1.2 (0a00cf5339, 2022-02-04)"
   sodipodi:docname="pointer-red.svg"
   xmlns:inkscape="http://www.inkscape.org/namespaces/inkscape"
   xmlns:sodipodi="http://sodipodi.sourceforge.net/DTD/sodipodi-0.dtd"
   xmlns="http://www.w3.org/2000/svg"
   xmlns:svg="http://www.w3.org/2000/svg">
  <sodipodi:namedview
     id="namedview7"
     pagecolor="#ffffff"
     bordercolor="#666666"
     borderopacity="1.0"
     inkscape:pageshadow="2"
     inkscape:pageopacity="0.0"
     inkscape:pagecheckerboard="0"
     inkscape:document-units="mm"
     showgrid="false"
     fit-margin-top="0"
     fit-margin-left="0"
     fit-margin-right="0"
     fit-margin-bottom="0"
     inkscape:zoom="11.830527"
     inkscape:cx="-3.6346648"
     inkscape:cy="17.919743"
     inkscape:window-width="1920"
     inkscape:window-height="1008"
     inkscape:window-x="0"
     inkscape:window-y="0"
     inkscape:window-maximized="1"
     inkscape:current-layer="layer1" />
  <defs
     id="defs2" />
  <g
     inkscape:label="Camada 1"
     inkscape:groupmode="layer"
     id="layer1"
     transform="translate(-112.56605,-201.09426)">
    <path
       style="fill:#82c58d;fill-opacity:1;stroke-width:0.0223645"
       d="m 116.57512,211.4434 c -0.11927,-0.0649 -0.54986,-0.45342 -1.09674,-0.98962 -1.71753,-1.68399 -2.64039,-3.1126 -2.86775,-4.43935 -0.0507,-0.2957 -0.0597,-0.87158 -0.019,-1.21331 0.13996,-1.17587 0.64115,-2.07528 1.55966,-2.7989 1.22906,-0.96827 2.89547,-1.17924 4.34582,-0.5502 0.71046,0.30815 1.44604,0.92794 1.85805,1.56557 0.41273,0.63876 0.64528,1.49858 0.64373,2.38011 -0.002,1.36161 -0.76317,2.79307 -2.42033,4.55408 -0.52197,0.55468 -1.44334,1.41482 -1.60251,1.49603 -0.12186,0.0622 -0.28176,0.0604 -0.40089,-0.004 z m 0.85075,-1.42399 c 1.18334,-1.16252 1.86059,-2.0148 2.32943,-2.93148 0.37198,-0.7273 0.50074,-1.27503 0.459,-1.95254 -0.0565,-0.9169 -0.37329,-1.65016 -0.97629,-2.2596 -0.53024,-0.53591 -1.15333,-0.85693 -1.87295,-0.96495 -0.33141,-0.0497 -0.90557,-0.0446 -1.23114,0.0111 -0.48223,0.0824 -0.96987,0.28245 -1.34686,0.5524 -0.75898,0.54351 -1.22516,1.27679 -1.39598,2.19584 -0.0661,0.35547 -0.0712,0.99736 -0.0102,1.27718 0.19826,0.90934 0.78052,1.89153 1.84949,3.11984 0.31551,0.36254 1.50307,1.55433 1.54881,1.55433 0.0186,0 0.30958,-0.27095 0.64667,-0.6021 z"
       id="path946" />
    <path
       style="fill:#2f9e41;fill-opacity:1;stroke-width:0.0223645"
       d="m 116.23951,210.08576 c -1.25296,-1.24092 -1.98288,-2.16455 -2.45428,-3.10561 -0.19189,-0.38308 -0.31805,-0.72511 -0.38771,-1.05113 -0.0554,-0.25914 -0.054,-0.87945 0.003,-1.1965 0.13667,-0.76512 0.46405,-1.39021 0.9919,-1.89387 0.53955,-0.51483 1.15944,-0.81564 1.88135,-0.91298 0.30316,-0.0409 0.82294,-0.0308 1.1292,0.0218 1.27827,0.21977 2.3304,1.17546 2.66334,2.41921 0.1269,0.47407 0.16504,1.11761 0.0906,1.52876 -0.13427,0.74151 -0.62638,1.67557 -1.38147,2.62211 -0.44084,0.55261 -1.27455,1.43276 -1.82438,1.92601 l -0.18357,0.16468 z m 0.86444,-3.88669 c 0.23247,-0.0883 0.41589,-0.26375 0.52954,-0.50644 0.0558,-0.11906 0.062,-0.15663 0.0614,-0.36745 -9e-4,-0.29834 -0.0507,-0.4363 -0.22579,-0.62542 -0.21832,-0.23581 -0.44554,-0.3278 -0.76106,-0.30811 -0.78658,0.0491 -1.15584,0.99326 -0.61295,1.56729 0.26054,0.27548 0.66344,0.37138 1.00886,0.24013 z"
       id="path985" />
    <path
       style="fill:#82c58d;fill-opacity:1;stroke-width:0.0363095"
       d="m 116.51455,206.38026 c -0.27153,-0.0645 -0.47741,-0.18189 -0.69422,-0.39533 -0.23149,-0.2279 -0.34304,-0.42954 -0.4084,-0.73821 -0.0431,-0.20283 -0.0474,-0.31451 -0.0194,-0.49113 0.19142,-1.21052 1.65152,-1.69311 2.5239,-0.83423 0.6139,0.60439 0.58999,1.53612 -0.0544,2.12091 -0.19241,0.17463 -0.46869,0.30814 -0.74394,0.35954 -0.24556,0.0459 -0.33363,0.0428 -0.60346,-0.0216 z"
       id="path870" />
    <path
       style="fill:#cd191e;stroke-width:0.0845271;fill-opacity:1"
       d="M 15.278173,39.108422 C 14.745347,38.830185 13.58667,37.795479 11.380936,35.628168 8.2749822,32.576317 6.7193178,30.848018 4.9300715,28.46144 2.2830431,24.930714 0.5997504,21.328946 0.16338901,18.262093 0.02647559,17.299832 0.05366927,14.58476 0.21084157,13.524334 0.49208549,11.626809 1.0212276,9.9591776 1.8328381,8.4124891 3.9184505,4.4379304 8.0573331,1.3625689 12.6368,0.38469719 c 4.093212,-0.87403993 8.522229,-0.0419482 12.002846,2.25500851 4.473837,2.95241 6.76997,6.9507403 7.138418,12.4303583 0.355976,5.294156 -1.978495,10.386607 -7.74414,16.893182 -1.859633,2.098611 -6.168055,6.27957 -7.227813,7.013984 -0.44406,0.307733 -1.084548,0.362728 -1.527938,0.131192 z m 1.608644,-3.891337 c 1.371128,-1.261547 4.501108,-4.478006 5.606468,-5.761369 1.927939,-2.238409 3.25907,-4.107999 4.361827,-6.12624 1.719518,-3.147022 2.32329,-5.61351 2.058796,-8.410445 C 28.579647,11.384331 27.502461,9.0223284 25.152577,6.6713638 23.207951,4.7258435 21.383028,3.7222781 18.765014,3.1587013 17.993608,2.9926417 17.628631,2.9674434 15.97562,2.9661183 14.484158,2.9649229 13.910263,2.9971692 13.316083,3.1155539 11.545546,3.4683168 9.691324,4.2468516 8.3259182,5.2107825 7.3206291,5.9204827 5.8318675,7.417922 5.1868162,8.3681817 4.1878201,9.8398567 3.51124,11.457102 3.1181276,13.313016 c -0.1620624,0.76511 -0.1882024,1.149873 -0.1895054,2.789394 -0.00142,1.780333 0.012368,1.953171 0.2156955,2.704867 0.9261367,3.423896 3.1397869,7.067343 6.8970753,11.351898 1.081969,1.233804 5.699111,5.891628 5.840169,5.891628 0.05452,0 0.50688,-0.375172 1.005255,-0.833718 z"
       id="path2124"
       transform="matrix(0.26458333,0,0,0.26458333,112.56605,201.09426)" />
    <path
       style="fill:#cd191e;fill-opacity:1;stroke-width:0.0845271"
       d="M 13.599029,33.620649 C 8.6330008,28.588488 6.289516,25.56426 4.5108567,21.892516 3.7953406,20.415452 3.3602835,19.17342 3.1636925,18.046533 2.9554649,16.852944 3.0368974,14.366235 3.3242375,13.143962 3.6216361,11.878904 3.8293664,11.294524 4.3909058,10.143251 5.0128387,8.8681576 5.7226663,7.8686179 6.7056382,6.8837731 9.397091,4.1871921 12.569564,2.9580255 16.440519,3.1120185 c 1.425759,0.056719 2.336491,0.2077321 3.500293,0.5804011 4.069226,1.303034 7.258912,4.6084731 8.338379,8.6409744 0.481444,1.798505 0.635381,4.401143 0.34791,5.882194 -0.629919,3.245346 -2.929133,7.244939 -6.579584,11.445496 -1.054241,1.213111 -5.995776,6.220665 -6.138651,6.220665 -0.04315,0 -1.082576,-1.017495 -2.309837,-2.2611 z m 4.049105,-13.636257 c 1.612928,-0.412345 2.991828,-1.524797 3.684565,-2.972587 0.470914,-0.984188 0.591381,-1.504683 0.582186,-2.515409 -0.01884,-2.071378 -1.231082,-3.93537 -3.192135,-4.9083716 -2.701808,-1.340537 -6.070402,-0.2470468 -7.455751,2.4202356 -0.473042,0.910771 -0.644656,1.59366 -0.646526,2.572663 -0.003,1.571368 0.490481,2.74143 1.644442,3.899018 0.875163,0.877913 1.716285,1.339655 2.907697,1.596209 0.861506,0.185515 1.480724,0.162562 2.475522,-0.09176 z"
       id="path2200"
       transform="matrix(0.26458333,0,0,0.26458333,112.56605,201.09426)" />
    <path
       style="fill:#ffffff;fill-opacity:1;stroke-width:0.0845271"
       d="M 13.624308,33.558483 C 11.270133,31.165574 9.5147352,29.236124 8.2365885,27.63656 5.7125239,24.477766 3.7659791,20.80347 3.2487799,18.221579 3.1303434,17.630337 3.1142181,17.198809 3.1540215,15.685766 3.2020894,13.858564 3.2389439,13.586308 3.6335733,12.143162 3.8830357,11.230887 4.8263067,9.3311011 5.4972024,8.3897378 5.7869469,7.9831845 6.4471921,7.2414593 6.964414,6.7414595 8.7944146,4.9723933 10.692685,3.9364304 13.083638,3.4019519 c 1.129445,-0.2524785 4.317405,-0.2744236 5.417207,-0.037291 1.185445,0.255599 2.030243,0.5528072 3.180353,1.1188804 3.536409,1.7405861 5.980797,4.9079539 6.748836,8.7449477 0.359043,1.793714 0.381834,4.042172 0.05473,5.399084 -0.765166,3.174068 -2.994209,6.975222 -6.375699,10.872381 -1.047681,1.207448 -6.04975,6.299713 -6.186716,6.298273 -0.05255,-5.92e-4 -1.086664,-1.008438 -2.298038,-2.239744 z m 3.99959,-13.522443 c 0.278939,-0.07238 0.830479,-0.288699 1.225643,-0.48072 1.010383,-0.490972 2.013147,-1.498994 2.509952,-2.523112 0.477697,-0.984728 0.562661,-1.338573 0.568294,-2.366758 0.0059,-1.071854 -0.110691,-1.591327 -0.569012,-2.535813 -0.275977,-0.568721 -0.490135,-0.85943 -1.027438,-1.394697 -1.162113,-1.1577092 -2.238773,-1.64645 -3.776162,-1.7141572 -2.349527,-0.103474 -4.360953,1.0549092 -5.397262,3.1082922 -0.758053,1.502035 -0.770269,3.382627 -0.03168,4.87741 0.369236,0.747275 1.310011,1.793708 2.06714,2.299299 1.275523,0.851763 2.918524,1.122567 4.430528,0.730256 z"
       id="path2239"
       transform="matrix(0.26458333,0,0,0.26458333,112.56605,201.09426)" />
    <path
       style="fill:#ffffff;fill-opacity:1;stroke-width:0.0845271"
       d="m 15.193233,19.991782 c -1.185555,-0.249939 -1.908284,-0.655896 -2.854898,-1.603596 -1.085428,-1.086673 -1.520276,-2.00378 -1.660109,-3.501214 -0.140165,-1.500991 0.703832,-3.407945 1.979792,-4.473206 2.598995,-2.1698251 6.39026,-1.5951294 8.298496,1.257921 0.616002,0.920998 0.872661,1.777557 0.871722,2.909236 -0.0013,1.546686 -0.46732,2.640174 -1.625581,3.814168 -0.594081,0.602151 -0.847397,0.790659 -1.456468,1.083845 -0.719047,0.346126 -2.003722,0.684313 -2.55925,0.673717 -0.139469,-0.0027 -0.586636,-0.07505 -0.993704,-0.160871 z"
       id="path2315"
       transform="matrix(0.26458333,0,0,0.26458333,112.56605,201.09426)" />
    <path
       style="fill:#cd191e;fill-opacity:1;stroke-width:0.0845271"
       d="M 14.695302,34.559746 C 13.132938,33.016214 10.470923,30.187501 9.3370938,28.866001 6.6713256,25.758996 4.7081751,22.558493 3.7375197,19.737075 3.2340536,18.273643 3.1832145,17.858292 3.2348592,15.630378 c 0.03954,-1.7057 0.070583,-2.037921 0.2599841,-2.782261 C 4.0536968,10.651838 5.2173167,8.5979154 6.8014964,7.0114948 8.5771076,5.2333719 10.152499,4.280384 12.379219,3.6374108 c 1.094382,-0.316007 2.196682,-0.411212 4.145827,-0.3580728 1.864835,0.050841 2.475246,0.1595498 3.826801,0.6815208 4.314486,1.666256 7.191057,5.0293502 8.052331,9.4142442 0.232055,1.181437 0.315172,3.35535 0.169604,4.436025 -0.419964,3.117774 -3.181325,7.989378 -6.769287,11.942407 -1.037173,1.142704 -5.407339,5.610322 -5.672947,5.799452 l -0.250407,0.178305 z m 3.412953,-14.651754 c 1.71761,-0.628961 2.939818,-1.830193 3.582256,-3.520776 0.169053,-0.444864 0.230299,-0.788203 0.261898,-1.468185 0.0507,-1.091061 -0.09022,-1.82418 -0.52968,-2.755459 C 21.16722,11.622112 20.961847,11.350185 20.337791,10.727049 19.510329,9.9008073 19.062412,9.5985402 18.183431,9.2732268 17.410762,8.9872598 15.86177,8.9164667 14.927128,9.1244049 12.904513,9.574394 11.247333,11.18279 10.732573,13.19548 c -0.201694,0.788619 -0.218112,1.959715 -0.03817,2.722979 0.454861,1.929431 2.313561,3.758744 4.266896,4.199438 0.366048,0.08258 0.859758,0.113335 1.479224,0.09214 0.786609,-0.02692 1.04344,-0.07343 1.667736,-0.302041 z"
       id="path2354"
       transform="matrix(0.26458333,0,0,0.26458333,112.56605,201.09426)" />
  </g>
</svg>
