<?xml version="1.0" encoding="UTF-8" standalone="no"?>
<!-- Created with Inkscape (http://www.inkscape.org/) -->

<svg
   width="11.205106mm"
   height="9.3001699mm"
   viewBox="0 0 11.205106 9.3001699"
   version="1.1"
   id="svg39789"
   inkscape:version="1.1.2 (0a00cf5339, 2022-02-04)"
   sodipodi:docname="capelo-branco.svg"
   xmlns:inkscape="http://www.inkscape.org/namespaces/inkscape"
   xmlns:sodipodi="http://sodipodi.sourceforge.net/DTD/sodipodi-0.dtd"
   xmlns="http://www.w3.org/2000/svg"
   xmlns:svg="http://www.w3.org/2000/svg">
  <sodipodi:namedview
     id="namedview39791"
     pagecolor="#ffffff"
     bordercolor="#666666"
     borderopacity="1.0"
     inkscape:pageshadow="2"
     inkscape:pageopacity="0.0"
     inkscape:pagecheckerboard="0"
     inkscape:document-units="mm"
     showgrid="false"
     fit-margin-top="0"
     fit-margin-left="0"
     fit-margin-right="0"
     fit-margin-bottom="0"
     inkscape:zoom="0.73940797"
     inkscape:cx="105.4898"
     inkscape:cy="109.5471"
     inkscape:window-width="1920"
     inkscape:window-height="1008"
     inkscape:window-x="0"
     inkscape:window-y="0"
     inkscape:window-maximized="1"
     inkscape:current-layer="layer1" />
  <defs
     id="defs39786" />
  <g
     inkscape:label="Camada 1"
     inkscape:groupmode="layer"
     id="layer1"
     transform="translate(-77.056484,-119.51735)">
    <path
       d="m 82.427524,128.81752 q -0.100357,0 -0.195699,-0.0198 -0.09534,-0.0199 -0.187947,-0.0728 l -3.042708,-1.66688 q -0.185209,-0.10583 -0.297657,-0.28939 -0.112447,-0.18355 -0.112447,-0.41175 v -2.69875 l -1.336146,-0.72761 q -0.103942,-0.059 -0.151196,-0.14741 -0.04724,-0.0884 -0.04724,-0.19655 0,-0.10809 0.04724,-0.19654 0.04726,-0.0884 0.151196,-0.14741 l 4.788958,-2.61938 q 0.09086,-0.0529 0.186769,-0.0794 0.09591,-0.0265 0.196877,-0.0265 0.100965,0 0.196876,0.0265 0.09591,0.0264 0.18677,0.0794 l 5.23875,2.84427 q 0.105833,0.0662 0.15875,0.15832 0.05292,0.0922 0.05292,0.19887 v 3.55865 q 0,0.16867 -0.114763,0.28277 -0.114776,0.1141 -0.284427,0.1141 -0.169664,0 -0.282112,-0.1141 -0.112448,-0.1141 -0.112448,-0.28277 v -3.33375 l -1.203854,0.60854 v 2.69875 q 0,0.2282 -0.112448,0.41175 -0.112448,0.18356 -0.297656,0.28939 l -3.042712,1.66688 q -0.0926,0.0529 -0.187947,0.0728 -0.09534,0.0198 -0.195699,0.0198 z m 0,-3.95552 4.167187,-2.27542 -4.167187,-2.23572 -4.140729,2.23572 z m 0,3.175 3.042708,-1.6801 v -2.2225 l -2.659062,1.42875 q -0.0926,0.0529 -0.185209,0.0728 -0.0926,0.0198 -0.198437,0.0198 -0.105833,0 -0.191823,-0.0198 -0.08599,-0.0198 -0.178594,-0.0728 l -2.672291,-1.45521 v 2.24896 z m 0.01323,-3.175 z m -0.01323,1.19063 z m 0,0 z"
       id="path39850"
       style="stroke-width:0.0132292;fill:#ffffff" />
  </g>
</svg>
