<?xml version="1.0" encoding="UTF-8" standalone="no"?>
<!-- Created with Inkscape (http://www.inkscape.org/) -->

<svg
   width="16.966673mm"
   height="7.7786083mm"
   viewBox="0 0 16.966673 7.778608"
   version="1.1"
   id="svg28858"
   xmlns="http://www.w3.org/2000/svg"
   xmlns:svg="http://www.w3.org/2000/svg">
  <defs
     id="defs28855" />
  <g
     id="layer1"
     transform="translate(-89.196621,-139.42336)">
    <g
       id="g29199"
       transform="translate(-0.15000586,-0.42300817)">
      <path
         style="fill:#b9b9b9;fill-opacity:1;stroke-width:0.264583"
         d="m 99.029163,147.10363 c -0.329164,-0.32916 -0.415774,-1.04172 -0.415774,-3.42068 0,-3.9153 -0.07839,-3.83646 3.814351,-3.83646 3.89283,0 3.85857,-0.0345 3.85857,3.88243 0,2.48772 -0.0709,2.97887 -0.48386,3.3526 -0.61078,0.55275 -1.10364,0.56198 -1.10364,0.0207 0,-0.6099 -1.4544,-1.96402 -2.10946,-1.96402 -0.95544,0 -2.053,0.73893 -2.34601,1.57946 -0.313922,0.90051 -0.606624,0.99357 -1.214177,0.38601 z m 4.209617,-2.92449 c 0.91213,-0.91213 -0.15941,-2.4098 -1.38424,-1.93476 -1.12908,0.43791 -0.61477,2.32412 0.64255,2.35656 0.17151,0.004 0.50527,-0.18538 0.74169,-0.4218 z m -12.710518,2.34115 c -0.742683,-0.5081 -1.175289,-1.57793 -1.175289,-2.90646 0,-1.2657 0.101739,-1.51565 1.015747,-2.49551 0.900702,-0.9656 1.177898,-1.10197 2.447396,-1.20395 1.184967,-0.0952 1.591211,-0.007 2.35769,0.50914 1.652703,1.11392 2.31094,3.32443 1.472654,4.94549 -0.703414,1.36026 -1.059553,1.46447 -1.952642,0.57138 -1.108692,-1.10869 -2.454051,-1.00066 -3.488761,0.28014 -0.218282,0.2702 -0.522839,0.40509 -0.676795,0.29977 z m 3.450101,-2.34115 c 0.912126,-0.91213 -0.159405,-2.4098 -1.384244,-1.93476 -1.129077,0.43791 -0.614767,2.32412 0.642559,2.35656 0.171507,0.004 0.505265,-0.18538 0.741685,-0.4218 z"
         id="path29209" />
      <path
         style="fill:#a3a3a3;fill-opacity:1;stroke-width:0.264583"
         d="m 99.051272,147.03555 c -0.351674,-0.38859 -0.437883,-1.05769 -0.437883,-3.39857 0,-3.81836 -0.02874,-3.79049 3.908431,-3.79049 2.73893,0 2.96899,0.0404 3.35261,0.58804 0.58516,0.83544 0.58516,5.6614 0,6.49684 -0.49172,0.70203 -1.17225,0.77388 -1.18404,0.12502 -0.0173,-0.95209 -1.25232,-1.91823 -2.45205,-1.91823 -0.83999,0 -1.93408,0.87505 -2.14505,1.7156 -0.198503,0.79091 -0.450926,0.83494 -1.042018,0.18179 z m 4.271698,-2.74406 c 0.82598,-0.82598 -0.15389,-2.55028 -1.25132,-2.20197 -0.30162,0.0957 -0.6758,0.4121 -0.83151,0.70305 -0.60835,1.13671 1.16723,2.41452 2.08283,1.49892 z m -12.998099,1.93894 c -1.601732,-1.84143 -1.161533,-4.5725 0.943913,-5.8562 1.616117,-0.98536 3.856691,-0.49327 4.99017,1.09597 0.881811,1.23638 0.879052,3.19298 -0.0063,4.43428 -0.629869,0.88315 -0.648272,0.88951 -1.069288,0.36957 -1.08264,-1.337 -2.606375,-1.49025 -3.722266,-0.37435 -0.69416,0.69416 -0.794697,0.72342 -1.136274,0.33073 z m 3.869023,-2.1758 c 0.373388,-0.59676 0.01742,-1.76081 -0.598208,-1.9562 -0.622284,-0.19751 -1.469991,0.21076 -1.704045,0.8207 -0.09318,0.24283 0.01933,0.72957 0.250022,1.08166 0.478752,0.73067 1.610174,0.76035 2.052231,0.0538 z"
         id="path29207" />
      <path
         style="fill:#8c8c8c;fill-opacity:1;stroke-width:0.264583"
         d="m 99.051272,147.03555 c -0.351674,-0.38859 -0.437883,-1.05769 -0.437883,-3.39857 0,-3.80271 -0.01222,-3.79049 3.791151,-3.79049 3.81057,0 3.88177,0.0704 3.88177,3.83646 0,2.42535 -0.0672,2.84532 -0.52917,3.30729 -0.67752,0.67752 -1.05833,0.67297 -1.05833,-0.0126 0,-0.81657 -1.25225,-1.83945 -2.25192,-1.83945 -1.02442,0 -2.12422,0.80167 -2.3536,1.7156 -0.198503,0.79091 -0.450926,0.83494 -1.042018,0.18179 z m 4.271698,-2.74406 c 0.44999,-0.44999 0.39337,-1.42092 -0.11235,-1.92664 -0.59859,-0.59859 -1.4627,-0.40192 -1.93378,0.44012 -0.3624,0.64778 -0.35384,0.75715 0.0983,1.25677 0.55053,0.60833 1.46176,0.71581 1.94782,0.22975 z m -12.998099,1.93894 c -1.151053,-1.32331 -1.30121,-3.1669 -0.371311,-4.55888 1.740188,-2.6049 5.517302,-2.26116 6.664724,0.60652 0.510249,1.27524 0.397124,2.30866 -0.394865,3.60716 l -0.536348,0.87937 -0.759661,-0.81322 c -1.034973,-1.10795 -2.389803,-1.12815 -3.466265,-0.0517 -0.694159,0.69416 -0.794697,0.72342 -1.136274,0.33073 z m 3.737685,-1.93894 c 0.753289,-0.75329 0.0645,-2.32833 -1.018216,-2.32833 -0.277292,0 -0.6992,0.29765 -0.937572,0.66145 -0.401483,0.61275 -0.401483,0.71018 0,1.32292 0.464416,0.70879 1.422469,0.87728 1.955788,0.34396 z"
         id="path29205" />
      <path
         style="fill:#767676;fill-opacity:1;stroke-width:0.264583"
         d="m 99.194849,147.10292 c -0.541002,-0.37893 -0.58146,-0.61689 -0.58146,-3.41997 0,-3.81767 0.01883,-3.83646 3.844761,-3.83646 3.56658,0 3.66834,0.0814 3.78957,3.03141 0.11552,2.81104 -0.095,4.02363 -0.76047,4.37976 -0.44024,0.23561 -0.56485,0.14666 -0.89226,-0.63694 -0.86109,-2.06088 -3.61267,-1.9788 -4.50115,0.13428 -0.300514,0.71472 -0.348692,0.73337 -0.898991,0.34792 z m 4.167761,-2.87481 c 1.00035,-1.20534 -0.67492,-2.92138 -1.83079,-1.87533 -0.65155,0.58965 -0.68176,1.12875 -0.0993,1.77236 0.52423,0.57926 1.49195,0.6309 1.93009,0.10297 z m -13.207145,1.78711 c -1.678907,-2.13439 -0.401823,-5.55825 2.259418,-6.0575 1.144204,-0.21465 3.115087,0.47926 3.691968,1.29988 1.006908,1.43235 1.002202,3.30349 -0.01221,4.85167 l -0.420394,0.6416 -0.753251,-0.80636 c -1.032419,-1.1052 -2.385911,-1.11876 -3.469925,-0.0347 l -0.771609,0.77161 z m 3.907091,-1.72373 c 0.57165,-0.57165 0.38377,-1.78032 -0.327085,-2.1042 -0.821889,-0.37448 -1.396266,-0.15085 -1.780934,0.69341 -0.252679,0.55457 -0.222905,0.75772 0.175589,1.19805 0.537007,0.59338 1.451148,0.69402 1.93243,0.21274 z"
         id="path29203" />
      <path
         style="fill:#606060;fill-opacity:1;stroke-width:0.264583"
         d="m 99.195344,147.04303 c -0.525651,-0.52565 -0.581955,-0.85073 -0.581955,-3.36008 0,-3.7316 0.100444,-3.83646 3.674851,-3.83646 3.64148,0 3.84037,0.17573 3.94094,3.48206 0.0753,2.47502 -0.20181,3.61943 -0.93492,3.86124 -0.18183,0.06 -0.40793,-0.10922 -0.50245,-0.37599 -0.38151,-1.07672 -1.21403,-1.67564 -2.32921,-1.67564 -1.34566,0 -2.18674,0.56281 -2.469013,1.65214 l -0.216288,0.83468 z m 4.338956,-3.09797 c 0.80699,-1.22318 -1.0646,-2.62541 -2.10952,-1.58049 -0.51117,0.51116 -0.5614,1.47816 -0.10071,1.93885 0.47658,0.47658 1.80105,0.26183 2.21023,-0.35836 z m -13.396827,1.97386 c -1.380705,-1.93903 -0.691634,-4.49952 1.495876,-5.55847 1.440372,-0.69727 2.7658,-0.48222 3.996604,0.64846 1.436303,1.31946 1.642496,3.62729 0.442545,4.95322 -0.425506,0.47018 -0.466332,0.46453 -1.218939,-0.16875 -1.142765,-0.96157 -2.598554,-0.90379 -3.475103,0.13792 l -0.66739,0.79315 z m 3.865008,-1.51242 c 0.929176,-0.63624 0.387664,-2.44334 -0.73217,-2.44334 -0.662685,0 -1.536088,0.71018 -1.536088,1.24902 0,1.12729 1.337601,1.83158 2.268258,1.19432 z"
         id="path29201" />
    </g>
    <path
       style="fill:#cd191e;stroke-width:0.114371"
       d="M 3.7429998,23.870199 C 0.9530961,19.937451 -0.03978655,16.603502 0.49325101,12.958037 1.1005384,8.8047736 3.3333794,5.3730707 6.9753363,2.9955756 9.3994063,1.413126 12.012767,0.59168959 14.623186,0.59168959 c 3.555574,0 6.490721,1.33587061 9.462252,4.30654611 1.627936,1.6274666 2.736806,3.4292192 3.4881,5.6676503 0.458913,1.367299 0.551134,1.923251 0.620446,3.740308 0.147873,3.876662 -0.85441,6.709689 -3.243446,9.167826 -1.172552,1.206469 -1.229339,1.189438 -4.516605,-1.354531 -3.240248,-2.507582 -7.057003,-2.951192 -10.339362,-1.201713 -0.9389532,0.500456 -1.8483788,1.383001 -4.3821533,4.252623 l -0.580588,0.657543 z M 16.736363,17.738374 c 1.107036,-0.513929 1.760647,-1.098561 2.254237,-2.016336 0.2948,-0.548147 0.363908,-0.964375 0.36489,-2.197704 0.001,-1.357951 -0.05553,-1.639598 -0.52674,-2.62034 C 17.51188,8.1631329 15.237567,7.2741835 12.648274,8.4882635 11.34349,9.1000568 9.7826999,10.494384 9.3102986,11.470235 c -1.0963813,2.264822 0.7406974,5.567993 3.5926214,6.459736 1.210834,0.378604 2.773417,0.300506 3.833443,-0.191597 z"
       id="path29346"
       transform="matrix(0.26458333,0,0,0.26458333,89.196621,139.42336)" />
    <path
       style="fill:#2f9e41;stroke-width:0.114371;fill-opacity:1"
       d="M 37.841132,27.685839 C 35.280236,25.062071 35.306249,25.179261 35.208887,15.827482 35.102176,5.5776348 35.359493,3.7040474 37.108214,1.9979877 38.263637,0.87075335 39.411607,0.50021078 42.564246,0.23688658 45.885503,-0.04052147 55.715154,0.12581644 57.709214,0.49317059 61.080517,1.1142465 62.462758,2.435169 63.119361,5.6633147 c 0.575419,2.8290135 0.826932,11.5623903 0.437147,15.1792743 -0.453433,4.207506 -1.81788,6.797768 -3.580793,6.797768 -0.697183,0 -1.113012,-0.480011 -1.98886,-2.295824 -1.820644,-3.774573 -4.514326,-5.417139 -8.792092,-5.36128 -3.177527,0.04149 -5.385563,0.87276 -7.081555,2.666021 -1.046104,1.106101 -1.538174,2.116418 -2.142703,4.399393 -0.246209,0.929798 -0.500483,1.787084 -0.565053,1.905078 -0.07918,0.144694 -0.588447,-0.268076 -1.56432,-1.267906 z M 51.24828,17.34892 c 1.900172,-0.736951 3.187163,-2.442399 3.187163,-4.223448 0,-2.352615 -2.36994,-4.72241 -5.038805,-5.0384975 -2.812821,-0.333137 -5.308602,2.1665225 -5.343951,5.3522555 -0.0234,2.108684 0.81645,3.579479 2.373775,4.157096 0.975449,0.361798 3.597991,0.227238 4.821818,-0.247406 z"
       id="path29385"
       transform="matrix(0.26458333,0,0,0.26458333,89.196621,139.42336)" />
  </g>
</svg>
