<?xml version="1.0" encoding="UTF-8" standalone="no"?>
<!-- Created with Inkscape (http://www.inkscape.org/) -->

<svg
   width="39.158298mm"
   height="52.994492mm"
   viewBox="0 0 39.158299 52.994493"
   version="1.1"
   id="svg5"
   inkscape:version="1.1.2 (0a00cf5339, 2022-02-04)"
   sodipodi:docname="ifg.svg"
   xmlns:inkscape="http://www.inkscape.org/namespaces/inkscape"
   xmlns:sodipodi="http://sodipodi.sourceforge.net/DTD/sodipodi-0.dtd"
   xmlns="http://www.w3.org/2000/svg"
   xmlns:svg="http://www.w3.org/2000/svg">
  <sodipodi:namedview
     id="namedview7"
     pagecolor="#ffffff"
     bordercolor="#666666"
     borderopacity="1.0"
     inkscape:pageshadow="2"
     inkscape:pageopacity="0.0"
     inkscape:pagecheckerboard="0"
     inkscape:document-units="mm"
     showgrid="false"
     fit-margin-top="0"
     fit-margin-left="0"
     fit-margin-right="0"
     fit-margin-bottom="0"
     inkscape:zoom="0.73940797"
     inkscape:cx="20.2865"
     inkscape:cy="154.1774"
     inkscape:window-width="1920"
     inkscape:window-height="1008"
     inkscape:window-x="0"
     inkscape:window-y="0"
     inkscape:window-maximized="1"
     inkscape:current-layer="g1663" />
  <defs
     id="defs2" />
  <g
     inkscape:label="Camada 1"
     inkscape:groupmode="layer"
     id="layer1"
     transform="translate(-99.485274,-107.80145)">
    <g
       id="g1663"
       transform="translate(194.26197,5.5756406)">
      <path
         style="fill:#35982e;fill-opacity:1;stroke-width:0.264583"
         d="m -93.718396,154.94029 c -0.32496,-0.20507 -0.4117,-1.15693 -0.47871,-5.25303 -0.0717,-4.38509 -0.0274,-5.05698 0.35885,-5.44326 0.38239,-0.3824 1.10208,-0.43669 5.441539,-0.41052 4.58232,0.0276 5.02285,0.0712 5.26355,0.52098 0.14581,0.27245 0.26269,2.59926 0.26269,5.22972 0,4.25494 -0.0494,4.78361 -0.48385,5.17677 -0.41273,0.37352 -1.18087,0.43729 -5.22553,0.43383 -2.607909,-0.002 -4.920259,-0.11675 -5.138539,-0.25449 z m 13.692189,-0.10977 c -0.41326,-0.31371 -0.46302,-0.90864 -0.46302,-5.53585 v -5.18436 l 0.85989,-0.16039 c 0.47295,-0.0882 2.94349,-0.12337 5.49011,-0.0781 l 4.63021,0.0823 0.0718,5.25769 c 0.0499,3.6545 -0.0204,5.36889 -0.23083,5.6224 -0.42912,0.51705 -9.67656,0.51383 -10.3582,-0.004 z M -93.652246,141.176 c -0.58715,-0.24422 -0.59531,-0.31512 -0.59531,-5.16833 0,-2.88599 0.11325,-5.13233 0.27389,-5.43248 0.25636,-0.47902 0.60292,-0.51177 5.414649,-0.51177 4.81172,0 5.15829,0.0327 5.41465,0.51177 0.34577,0.64608 0.35935,9.79099 0.0153,10.33614 -0.20542,0.32555 -1.12009,0.40725 -5.08917,0.45458 -2.661299,0.0317 -5.106629,-0.0537 -5.434049,-0.18991 z m 13.758329,-0.0584 c -0.58769,-0.28344 -0.59531,-0.35427 -0.59531,-5.5333 0,-5.22074 0.003,-5.24691 0.59531,-5.39259 0.32742,-0.0805 2.79797,-0.11256 5.49011,-0.0712 l 4.89479,0.0752 0.072,5.29096 c 0.0645,4.74124 0.0249,5.32541 -0.3813,5.6224 -0.5818,0.42542 -9.19601,0.4327 -10.07556,0.009 z m 13.75833,0 c -0.58601,-0.28263 -0.59531,-0.36468 -0.59531,-5.25212 0,-2.73076 0.0723,-5.15335 0.1606,-5.38353 0.13896,-0.36212 0.86605,-0.41851 5.39565,-0.41851 4.52961,0 5.2567,0.0564 5.39565,0.41851 0.0883,0.23018 0.1606,2.66678 0.1606,5.41465 0,4.66874 -0.0335,5.01408 -0.51177,5.27003 -0.68868,0.36857 -9.22628,0.32673 -10.00542,-0.049 z m -27.794469,-13.75291 c -0.4076,-0.4076 -0.44641,-9.79518 -0.0436,-10.54781 0.25595,-0.47826 0.60131,-0.51178 5.272769,-0.51178 4.19165,0 5.06601,0.0671 5.41465,0.41578 0.61794,0.61794 0.61794,9.92759 0,10.54553 -0.34838,0.34838 -1.21904,0.41578 -5.37105,0.41578 -3.501319,0 -5.048419,-0.0932 -5.272759,-0.3175 z m 13.769059,-0.20808 c -0.49396,-0.79095 -0.4615,-10.14694 0.0366,-10.56035 0.25318,-0.21013 1.93353,-0.28078 5.4901,-0.23084 l 5.12525,0.072 0.0718,5.40486 c 0.0551,4.14721 -0.006,5.45454 -0.26458,5.61834 -0.185,0.11742 -2.54014,0.21531 -5.23365,0.21754 -4.60195,0.004 -4.91709,-0.0277 -5.22552,-0.52153 z m -9.4306,-13.00986 c 0.12969,-0.20983 0.01,-0.25928 -0.381259,-0.15706 -0.31379,0.0821 -0.57054,0.0493 -0.57054,-0.0728 0,-0.12209 -0.26789,-0.30267 -0.59531,-0.40129 -0.81217,-0.24463 -2.21138,-1.613 -2.59408,-2.53692 -0.17291,-0.41746 -0.4025,-0.75901 -0.51018,-0.75901 -0.10769,0 -0.13551,-0.31536 -0.0618,-0.70079 0.0925,-0.48373 0.0401,-0.64279 -0.16899,-0.51355 -0.20621,0.12745 -0.30294,-0.11842 -0.30294,-0.77004 0,-0.65162 0.0967,-0.89749 0.30294,-0.77004 0.20904,0.12919 0.26152,-0.0295 0.16931,-0.51187 -0.0792,-0.41434 0.0129,-0.82075 0.22622,-0.99776 0.19792,-0.16427 0.35986,-0.4481 0.35986,-0.63075 0,-0.18264 0.17729,-0.47921 0.39396,-0.65904 0.21668,-0.17982 0.33706,-0.41904 0.2675,-0.53158 -0.0696,-0.11254 0.0737,-0.36694 0.31829,-0.56533 0.38192,-0.30975 0.41604,-0.30465 0.24151,0.0362 -0.11178,0.21828 0.0183,0.15875 0.28916,-0.13229 0.27083,-0.29105 0.66572,-0.56848 0.87755,-0.61653 0.21183,-0.0481 0.45701,-0.20363 0.54483,-0.34573 0.13601,-0.22007 2.742799,-0.38078 3.549489,-0.21882 0.14553,0.0292 0.37274,0.0327 0.50492,0.008 0.13219,-0.0249 0.31191,0.0705 0.39938,0.21203 0.0875,0.14154 0.33608,0.29665 0.55246,0.3447 0.21638,0.0481 0.5515,0.26595 0.74472,0.48423 0.31227,0.35278 0.33225,0.35278 0.17977,0 -0.10104,-0.23379 -0.009,-0.19783 0.22361,0.0875 0.21732,0.26641 0.6131,0.6622 0.87951,0.87952 0.28534,0.23277 0.3213,0.32465 0.0875,0.2236 -0.35278,-0.15247 -0.35278,-0.1325 0,0.17978 0.21828,0.19322 0.43557,0.52947 0.48286,0.74722 0.0473,0.21776 0.18944,0.43338 0.31587,0.47916 0.12643,0.0458 0.16429,0.25414 0.0841,0.46302 -0.0802,0.20888 -0.0428,0.37978 0.083,0.37978 0.1258,0 0.22783,0.58345 0.22675,1.29654 -0.001,0.7131 -0.10852,1.23119 -0.23877,1.15131 -0.13023,-0.0799 -0.181,0.14664 -0.1128,0.5034 0.0682,0.35675 -0.0362,0.79831 -0.23203,0.98123 -0.19582,0.18292 -0.29457,0.43203 -0.21945,0.55358 0.0751,0.12154 -0.0489,0.29216 -0.27554,0.37914 -0.22667,0.087 -0.34115,0.27298 -0.25441,0.41333 0.0867,0.14035 -0.20337,0.44191 -0.64469,0.67012 -0.44132,0.22822 -0.8024,0.53797 -0.8024,0.68834 0,0.15038 -0.11906,0.19982 -0.26458,0.10989 -0.14552,-0.0899 -0.26459,-0.0634 -0.26459,0.059 0,0.12237 -0.32742,0.24948 -0.7276,0.28248 -0.40018,0.033 -0.76729,0.17802 -0.8158,0.32229 -0.0485,0.14426 -0.62108,0.2623 -1.27239,0.2623 -0.82952,0 -1.1275,-0.0917 -0.99491,-0.30626 z m 23.11202,-0.60655 c -0.31135,-0.3114 -0.33849,-10.37916 -0.0285,-10.57076 0.12256,-0.0757 2.59311,-0.15205 5.49011,-0.16958 l 5.26727,-0.0319 0.0719,5.22822 c 0.0395,2.87552 -0.0313,5.33138 -0.15736,5.45747 -0.31894,0.31894 -10.32967,0.40032 -10.64343,0.0865 z m -13.83326,-0.0573 c -0.25974,-0.25974 -0.21516,-10.35175 0.0464,-10.51343 0.12256,-0.0757 2.59311,-0.15205 5.49011,-0.16957 l 5.26727,-0.0318 0.0715,5.44562 0.0715,5.44562 h -5.38523 c -2.96188,0 -5.46461,-0.0794 -5.56162,-0.17639 z"
         id="path1669"
         sodipodi:nodetypes="scccssccscsccscsccccscsccccccscsccccccscscscccccscsscccscccccccccsscsccscccsccccccccccccccccscccsccscccccscsscsccccccccccccccccscc" />
      <path
         style="fill:#c80a0f;fill-opacity:1;stroke-width:1.35243"
         d="m -280.88458,99.477632 c -6.22217,-2.824914 -13.23666,-11.347509 -14.65519,-17.806034 -1.25243,-5.702267 4.60851,-17.174543 10.80519,-21.150205 9.95915,-6.389588 24.44282,-2.822914 30.54722,7.5224 2.35983,3.99927 2.80095,6.364435 2.22609,11.93571 -1.04254,10.103863 -3.99355,14.810932 -11.74937,18.741107 -7.97051,4.03896 -9.77038,4.1183 -17.17394,0.757022 z"
         id="path19603"
         transform="matrix(0.26458333,0,0,0.26458333,-16.254478,87.276271)" />
    </g>
  </g>
</svg>
