<?xml version="1.0" encoding="UTF-8" standalone="no"?>
<!-- Created with Inkscape (http://www.inkscape.org/) -->

<svg
   width="10.583331mm"
   height="10.58333mm"
   viewBox="0 0 10.583331 10.58333"
   version="1.1"
   id="svg39957"
   inkscape:version="1.1.2 (0a00cf5339, 2022-02-04)"
   sodipodi:docname="pergunta-branco.svg"
   xmlns:inkscape="http://www.inkscape.org/namespaces/inkscape"
   xmlns:sodipodi="http://sodipodi.sourceforge.net/DTD/sodipodi-0.dtd"
   xmlns="http://www.w3.org/2000/svg"
   xmlns:svg="http://www.w3.org/2000/svg">
  <sodipodi:namedview
     id="namedview39959"
     pagecolor="#ffffff"
     bordercolor="#666666"
     borderopacity="1.0"
     inkscape:pageshadow="2"
     inkscape:pageopacity="0.0"
     inkscape:pagecheckerboard="0"
     inkscape:document-units="mm"
     showgrid="false"
     fit-margin-top="0"
     fit-margin-left="0"
     fit-margin-right="0"
     fit-margin-bottom="0"
     inkscape:zoom="0.73940797"
     inkscape:cx="43.277867"
     inkscape:cy="124.42387"
     inkscape:window-width="1920"
     inkscape:window-height="1008"
     inkscape:window-x="0"
     inkscape:window-y="0"
     inkscape:window-maximized="1"
     inkscape:current-layer="layer1" />
  <defs
     id="defs39954" />
  <g
     inkscape:label="Camada 1"
     inkscape:groupmode="layer"
     id="layer1"
     transform="translate(-93.469777,-115.65532)">
    <path
       d="m 98.814733,124.02938 q 0.211296,0 0.356817,-0.14589 0.145521,-0.14589 0.145521,-0.35718 0,-0.2113 -0.145892,-0.35682 -0.145891,-0.14552 -0.357187,-0.14552 -0.211296,0 -0.356817,0.14589 -0.145521,0.14589 -0.145521,0.35719 0,0.21129 0.145891,0.35681 0.145891,0.14552 0.357188,0.14552 z m -0.04977,2.20927 q -1.094502,0 -2.057136,-0.41671 -0.962633,-0.41672 -1.683623,-1.13771 -0.72099,-0.72099 -1.137708,-1.68462 -0.416719,-0.96361 -0.416719,-2.05924 0,-1.09562 0.416719,-2.05924 0.416718,-0.96362 1.137708,-1.678 0.72099,-0.71437 1.684615,-1.13109 0.963613,-0.41672 2.059239,-0.41672 1.095627,0 2.059242,0.41672 0.96362,0.41672 1.678,1.13109 0.71437,0.71438 1.13109,1.68011 0.41672,0.96573 0.41672,2.06023 0,1.0945 -0.41672,2.05713 -0.41672,0.96264 -1.13109,1.68119 -0.71438,0.71856 -1.6801,1.13771 -0.965736,0.41915 -2.060237,0.41915 z m 0.0031,-0.79375 q 1.871927,0 3.181617,-1.3163 1.30969,-1.3163 1.30969,-3.18823 0,-1.87192 -1.3072,-3.18161 -1.30722,-1.30969 -3.190726,-1.30969 -1.865313,0 -3.181615,1.3072 -1.316302,1.30722 -1.316302,3.19072 0,1.86531 1.316302,3.18161 1.316302,1.3163 3.188229,1.3163 z m -0.0066,-4.49791 z m 0.0366,-2.38125 q 0.399957,0 0.704228,0.24474 0.304271,0.24474 0.304271,0.62436 0,0.34798 -0.20701,0.60501 -0.206997,0.25702 -0.467678,0.4838 -0.304271,0.25136 -0.529166,0.56072 -0.224896,0.30935 -0.224896,0.69606 0,0.14552 0.111125,0.23151 0.111125,0.086 0.259291,0.086 0.15875,0 0.26293,-0.10584 0.10418,-0.10583 0.133945,-0.26458 0.03969,-0.27781 0.211667,-0.50271 0.171979,-0.2249 0.399931,-0.40725 0.327669,-0.26744 0.539339,-0.62462 0.21167,-0.35719 0.21167,-0.77542 0,-0.66656 -0.4961,-1.10974 -0.49609,-0.44318 -1.176757,-0.44318 -0.47027,0 -0.906833,0.19844 -0.436562,0.19844 -0.714375,0.58208 -0.0926,0.13229 -0.08599,0.28443 0.0066,0.15214 0.125267,0.24474 0.151024,0.10583 0.312817,0.0662 0.161806,-0.0397 0.269677,-0.18521 0.168671,-0.23684 0.421679,-0.36317 0.253008,-0.12631 0.540968,-0.12631 z"
       id="path40018"
       style="stroke-width:0.0132292;fill:#ffffff" />
  </g>
</svg>
