<?xml version="1.0" encoding="UTF-8" standalone="no"?>
<!-- Created with Inkscape (http://www.inkscape.org/) -->

<svg
   width="8.4328432mm"
   height="10.399048mm"
   viewBox="0 0 8.4328432 10.399048"
   version="1.1"
   id="svg5"
   inkscape:version="1.1.2 (0a00cf5339, 2022-02-04)"
   sodipodi:docname="pointer-green.svg"
   xmlns:inkscape="http://www.inkscape.org/namespaces/inkscape"
   xmlns:sodipodi="http://sodipodi.sourceforge.net/DTD/sodipodi-0.dtd"
   xmlns="http://www.w3.org/2000/svg"
   xmlns:svg="http://www.w3.org/2000/svg">
  <sodipodi:namedview
     id="namedview7"
     pagecolor="#ffffff"
     bordercolor="#666666"
     borderopacity="1.0"
     inkscape:pageshadow="2"
     inkscape:pageopacity="0.0"
     inkscape:pagecheckerboard="0"
     inkscape:document-units="mm"
     showgrid="false"
     fit-margin-top="0"
     fit-margin-left="0"
     fit-margin-right="0"
     fit-margin-bottom="0"
     inkscape:zoom="11.830527"
     inkscape:cx="-3.6346648"
     inkscape:cy="17.919743"
     inkscape:window-width="1920"
     inkscape:window-height="1008"
     inkscape:window-x="0"
     inkscape:window-y="0"
     inkscape:window-maximized="1"
     inkscape:current-layer="layer1" />
  <defs
     id="defs2" />
  <g
     inkscape:label="Camada 1"
     inkscape:groupmode="layer"
     id="layer1"
     transform="translate(-112.56605,-201.09426)">
    <path
       style="fill:#82c58d;fill-opacity:1;stroke-width:0.0223645"
       d="m 116.57512,211.4434 c -0.11927,-0.0649 -0.54986,-0.45342 -1.09674,-0.98962 -1.71753,-1.68399 -2.64039,-3.1126 -2.86775,-4.43935 -0.0507,-0.2957 -0.0597,-0.87158 -0.019,-1.21331 0.13996,-1.17587 0.64115,-2.07528 1.55966,-2.7989 1.22906,-0.96827 2.89547,-1.17924 4.34582,-0.5502 0.71046,0.30815 1.44604,0.92794 1.85805,1.56557 0.41273,0.63876 0.64528,1.49858 0.64373,2.38011 -0.002,1.36161 -0.76317,2.79307 -2.42033,4.55408 -0.52197,0.55468 -1.44334,1.41482 -1.60251,1.49603 -0.12186,0.0622 -0.28176,0.0604 -0.40089,-0.004 z m 0.85075,-1.42399 c 1.18334,-1.16252 1.86059,-2.0148 2.32943,-2.93148 0.37198,-0.7273 0.50074,-1.27503 0.459,-1.95254 -0.0565,-0.9169 -0.37329,-1.65016 -0.97629,-2.2596 -0.53024,-0.53591 -1.15333,-0.85693 -1.87295,-0.96495 -0.33141,-0.0497 -0.90557,-0.0446 -1.23114,0.0111 -0.48223,0.0824 -0.96987,0.28245 -1.34686,0.5524 -0.75898,0.54351 -1.22516,1.27679 -1.39598,2.19584 -0.0661,0.35547 -0.0712,0.99736 -0.0102,1.27718 0.19826,0.90934 0.78052,1.89153 1.84949,3.11984 0.31551,0.36254 1.50307,1.55433 1.54881,1.55433 0.0186,0 0.30958,-0.27095 0.64667,-0.6021 z"
       id="path946" />
    <path
       style="fill:#2f9e41;fill-opacity:1;stroke-width:0.0223645"
       d="m 116.23951,210.08576 c -1.25296,-1.24092 -1.98288,-2.16455 -2.45428,-3.10561 -0.19189,-0.38308 -0.31805,-0.72511 -0.38771,-1.05113 -0.0554,-0.25914 -0.054,-0.87945 0.003,-1.1965 0.13667,-0.76512 0.46405,-1.39021 0.9919,-1.89387 0.53955,-0.51483 1.15944,-0.81564 1.88135,-0.91298 0.30316,-0.0409 0.82294,-0.0308 1.1292,0.0218 1.27827,0.21977 2.3304,1.17546 2.66334,2.41921 0.1269,0.47407 0.16504,1.11761 0.0906,1.52876 -0.13427,0.74151 -0.62638,1.67557 -1.38147,2.62211 -0.44084,0.55261 -1.27455,1.43276 -1.82438,1.92601 l -0.18357,0.16468 z m 0.86444,-3.88669 c 0.23247,-0.0883 0.41589,-0.26375 0.52954,-0.50644 0.0558,-0.11906 0.062,-0.15663 0.0614,-0.36745 -9e-4,-0.29834 -0.0507,-0.4363 -0.22579,-0.62542 -0.21832,-0.23581 -0.44554,-0.3278 -0.76106,-0.30811 -0.78658,0.0491 -1.15584,0.99326 -0.61295,1.56729 0.26054,0.27548 0.66344,0.37138 1.00886,0.24013 z"
       id="path985" />
    <path
       style="fill:#82c58d;fill-opacity:1;stroke-width:0.0363095"
       d="m 116.51455,206.38026 c -0.27153,-0.0645 -0.47741,-0.18189 -0.69422,-0.39533 -0.23149,-0.2279 -0.34304,-0.42954 -0.4084,-0.73821 -0.0431,-0.20283 -0.0474,-0.31451 -0.0194,-0.49113 0.19142,-1.21052 1.65152,-1.69311 2.5239,-0.83423 0.6139,0.60439 0.58999,1.53612 -0.0544,2.12091 -0.19241,0.17463 -0.46869,0.30814 -0.74394,0.35954 -0.24556,0.0459 -0.33363,0.0428 -0.60346,-0.0216 z"
       id="path870" />
  </g>
</svg>
