<?xml version="1.0" standalone="yes"?>
<svg xmlns="http://www.w3.org/2000/svg" width="87" height="43">
<path style="fill:#ffffff; stroke:none;" d="M0 0L0 43L87 43L87 0L0 0z"/>
<path style="fill:#eaa0a2; stroke:none;" d="M19 4C21.0521 4.87425 22.7472 4.95279 25 5C22.9479 4.12575 21.2528 4.04721 19 4z"/>
<path style="fill:#9ed2a6; stroke:none;" d="M52 4C58.6867 6.80584 68.7674 5 76 5C69.3133 2.19415 59.2326 4 52 4z"/>
<path style="fill:#e48284; stroke:none;" d="M16 5L17 6L16 5z"/>
<path style="fill:#cd191e; stroke:none;" d="M12 36C16.9977 26.8128 27.0023 26.8128 32 36C35.3736 33.3883 37.8271 30.3189 38.6597 26C39.2105 23.1429 39.1819 19.8196 38.4421 17C32.5599 -5.41849 -2.91184 7.15826 6.22839 28.9992C7.4974 32.0316 9.4668 34.039 12 36z"/>
<path style="fill:#e37f82; stroke:none;" d="M27 5L28 6L27 5z"/>
<path style="fill:#c9e6ce; stroke:none;" d="M49 5L50 6L49 5z"/>
<path style="fill:#2f9e41; stroke:none;" d="M53 39C57.0222 25.4672 70.3961 26.6496 75 39C83.6623 36.4278 81.0121 24.2071 81 17C80.9948 13.895 81.4249 9.98127 79.2577 7.43364C77.4317 5.28711 74.6169 5.09769 72 5.01543C65.9178 4.82426 57.92 3.77165 52.0193 5.3179C46.8694 6.66743 47.009 11.6214 47 16C46.9847 23.4286 44.0736 36.4105 53 39z"/>
<path style="fill:#70bc7d; stroke:none;" d="M77 5L78 6L77 5z"/>
<path style="fill:#f4cbcc; stroke:none;" d="M13 6L14 7L13 6z"/>
<path style="fill:#da565a; stroke:none;" d="M14 6L15 7L14 6z"/>
<path style="fill:#d95256; stroke:none;" d="M29 6L30 7L29 6z"/>
<path style="fill:#f3c6c7; stroke:none;" d="M30 6L31 7L30 6z"/>
<path style="fill:#a4d5ac; stroke:none;" d="M48 6L49 7L48 6z"/>
<path style="fill:#cce7d0; stroke:none;" d="M79 6L80 7L79 6z"/>
<path style="fill:#e07074; stroke:none;" d="M12 7L13 8L12 7z"/>
<path style="fill:#df6b6e; stroke:none;" d="M31 7L32 8L31 7z"/>
<path style="fill:#bee1c3; stroke:none;" d="M47 7L48 8L47 7z"/>
<path style="fill:#77bf83; stroke:none;" d="M80 8L81 9L80 8z"/>
<path style="fill:#f3c6c7; stroke:none;" d="M34 9L35 10L34 9z"/>
<path style="fill:#7cc288; stroke:none;" d="M46 9L46 34C48.4129 28.2497 48.4129 14.7503 46 9z"/>
<path style="fill:#add9b4; stroke:none;" d="M81 10L81 34C83.3486 28.4031 83.3486 15.5969 81 10z"/>
<path style="fill:#df6d70; stroke:none;" d="M7 12L8 13L7 12z"/>
<path style="fill:#dd6366; stroke:none;" d="M36 12L37 13L36 12z"/>
<path style="fill:#f3c6c7; stroke:none;" d="M6 13L7 14L6 13z"/>
<path style="fill:#f1bdbf; stroke:none;" d="M37 13L38 14L37 13z"/>
<path style="fill:#d95155; stroke:none;" d="M6 14L7 15L6 14z"/>
<path style="fill:#dd6568; stroke:none;" d="M21.6667 14.3333C21.2222 14.7778 22.2778 14.7222 22.3333 14.6667C22.7778 14.2222 21.7222 14.2778 21.6667 14.3333z"/>
<path style="fill:#75bf81; stroke:none;" d="M62 14C63.2484 14.6848 63.5484 14.7488 65 15C63.7516 14.3152 63.4516 14.2512 62 14z"/>
<path style="fill:#ffffff; stroke:none;" d="M19.3179 16.0324C14.1055 19.3908 19.0221 28.3573 24.6821 24.8056C29.9071 21.5268 24.9313 12.4157 19.3179 16.0324z"/>
<path style="fill:#f3c6c7; stroke:none;" d="M38 15L39 16L38 15z"/>
<path style="fill:#69b976; stroke:none;" d="M60 15L61 16L60 15z"/>
<path style="fill:#ffffff; stroke:none;" d="M61.2292 16.0432C55.2526 19.4985 61.0517 28.3364 66.6821 24.8056C71.9864 21.4792 66.8751 12.779 61.2292 16.0432z"/>
<path style="fill:#c6e4cb; stroke:none;" d="M66 15L67 16L66 15z"/>
<path style="fill:#e27b7e; stroke:none;" d="M5 16L6 17L5 16z"/>
<path style="fill:#da5457; stroke:none;" d="M17 16L18 17L17 16z"/>
<path style="fill:#db5b5e; stroke:none;" d="M26 16L27 17L26 16z"/>
<path style="fill:#e07174; stroke:none;" d="M38 16L39 17L38 16z"/>
<path style="fill:#7dc389; stroke:none;" d="M59 16L60 17L59 16z"/>
<path style="fill:#e37d80; stroke:none;" d="M16 18L17 19L16 18z"/>
<path style="fill:#e5888b; stroke:none;" d="M27 18L28 19L27 18z"/>
<path style="fill:#a9d7b0; stroke:none;" d="M58 18L59 19L58 18z"/>
<path style="fill:#75bf81; stroke:none;" d="M69 18L70 19L69 18z"/>
<path style="fill:#e89597; stroke:none;" d="M4 19L4 25C4.95111 22.7147 4.95111 21.2853 4 19z"/>
<path style="fill:#f3c9ca; stroke:none;" d="M16 19L16 22C16.6961 20.4463 16.6961 20.5537 16 19z"/>
<path style="fill:#f6d6d6; stroke:none;" d="M27 19L27 22C27.6961 20.4463 27.6961 20.5537 27 19z"/>
<path style="fill:#e5888b; stroke:none;" d="M39 19L39 24C39.8299 21.9695 39.8299 21.0305 39 19z"/>
<path style="fill:#bbdfc1; stroke:none;" d="M69 19L69 22C69.6961 20.4463 69.6961 20.5537 69 19z"/>
<path style="fill:#e07275; stroke:none;" d="M16 22L17 23L16 22z"/>
<path style="fill:#e37d80; stroke:none;" d="M27 22L28 23L27 22z"/>
<path style="fill:#9fd2a7; stroke:none;" d="M58 22L59 23L58 22z"/>
<path style="fill:#6bba78; stroke:none;" d="M69 22L70 23L69 22z"/>
<path style="fill:#f6d5d6; stroke:none;" d="M39.3333 24.6667C39.2778 24.7222 39.2222 25.7778 39.6667 25.3333C39.7222 25.2778 39.7778 24.2222 39.3333 24.6667z"/>
<path style="fill:#69b976; stroke:none;" d="M59 24L60 25L59 24z"/>
<path style="fill:#eeafb0; stroke:none;" d="M19 25L20 26L19 25z"/>
<path style="fill:#efb3b5; stroke:none;" d="M24 25L25 26L24 25z"/>
<path style="fill:#c4e4c9; stroke:none;" d="M61 25L62 26L61 25z"/>
<path style="fill:#abd8b2; stroke:none;" d="M66 25L67 26L66 25z"/>
<path style="fill:#d84a4e; stroke:none;" d="M21.6667 26.3333C21.2222 26.7778 22.2778 26.7222 22.3333 26.6667C22.7778 26.2222 21.7222 26.2778 21.6667 26.3333z"/>
<path style="fill:#57b166; stroke:none;" d="M63.6667 26.3333C63.2222 26.7778 64.2778 26.7222 64.3333 26.6667C64.7778 26.2222 63.7222 26.2778 63.6667 26.3333z"/>
<path style="fill:#e07275; stroke:none;" d="M5 27L6 28L5 27z"/>
<path style="fill:#de676b; stroke:none;" d="M38 27L39 28L38 27z"/>
<path style="fill:#f2c5c7; stroke:none;" d="M5 28L6 29L5 28z"/>
<path style="fill:#df6b6e; stroke:none;" d="M20 28C21.506 28.683 22.3148 28.8259 24 29C22.494 28.317 21.6852 28.1741 20 28z"/>
<path style="fill:#f0babc; stroke:none;" d="M38 28L39 29L38 28z"/>
<path style="fill:#7cc287; stroke:none;" d="M62 28C63.5061 28.683 64.3148 28.8259 66 29C64.494 28.317 63.6852 28.1741 62 28z"/>
<path style="fill:#e07074; stroke:none;" d="M17 29L18 30L17 29z"/>
<path style="fill:#e17578; stroke:none;" d="M26 29L27 30L26 29z"/>
<path style="fill:#8dca97; stroke:none;" d="M59 29L60 30L59 29z"/>
<path style="fill:#c8e6cd; stroke:none;" d="M67 29L68 30L67 29z"/>
<path style="fill:#74be80; stroke:none;" d="M68 29L69 30L68 29z"/>
<path style="fill:#f0b8b9; stroke:none;" d="M6 30L7 31L6 30z"/>
<path style="fill:#edaeb0; stroke:none;" d="M37 30L38 31L37 30z"/>
<path style="fill:#6bba78; stroke:none;" d="M57 30L58 31L57 30z"/>
<path style="fill:#dc5c5f; stroke:none;" d="M7 31L8 32L7 31z"/>
<path style="fill:#dd6265; stroke:none;" d="M14 31L15 32L14 31z"/>
<path style="fill:#df6a6d; stroke:none;" d="M29 31L30 32L29 31z"/>
<path style="fill:#da5356; stroke:none;" d="M36 31L37 32L36 31z"/>
<path style="fill:#8ac994; stroke:none;" d="M56 31L57 32L56 31z"/>
<path style="fill:#62b670; stroke:none;" d="M71 31L72 32L71 31z"/>
<path style="fill:#d94e52; stroke:none;" d="M13 32L14 33L13 32z"/>
<path style="fill:#dc5c5f; stroke:none;" d="M30 32L31 33L30 32z"/>
<path style="fill:#7bc186; stroke:none;" d="M55 32L56 33L55 32z"/>
<path style="fill:#f3c6c7; stroke:none;" d="M8 33L9 34L8 33z"/>
<path style="fill:#f1c0c1; stroke:none;" d="M35 33L36 34L35 33z"/>
<path style="fill:#f0b8b9; stroke:none;" d="M9 34L10 35L9 34z"/>
<path style="fill:#e89496; stroke:none;" d="M12 34L13 35L12 34z"/>
<path style="fill:#ea9ea0; stroke:none;" d="M31 34L32 35L31 34z"/>
<path style="fill:#eeb0b1; stroke:none;" d="M34 34L35 35L34 34z"/>
<path style="fill:#badfc0; stroke:none;" d="M46 34L47 35L46 34z"/>
<path style="fill:#bde0c3; stroke:none;" d="M54 34L55 35L54 34z"/>
<path style="fill:#8ac894; stroke:none;" d="M73 34L74 35L73 34z"/>
<path style="fill:#f2c5c7; stroke:none;" d="M10 35L11 36L10 35z"/>
<path style="fill:#f1bfc0; stroke:none;" d="M33 35L34 36L33 35z"/>
<path style="fill:#6ab977; stroke:none;" d="M80 35L81 36L80 35z"/>
<path style="fill:#add9b4; stroke:none;" d="M47 36L48 37L47 36z"/>
<path style="fill:#bfe1c5; stroke:none;" d="M53 36L53 39C53.6961 37.4463 53.6961 37.5537 53 36z"/>
<path style="fill:#8ac994; stroke:none;" d="M48 37L49 38L48 37z"/>
<path style="fill:#a3d4ab; stroke:none;" d="M74.3333 37.6667C74.2778 37.7222 74.2222 38.7778 74.6667 38.3333C74.7222 38.2778 74.7778 37.2222 74.3333 37.6667z"/>
<path style="fill:#b8debe; stroke:none;" d="M79 37L80 38L79 37z"/>
<path style="fill:#b1dab7; stroke:none;" d="M49 38L50 39L49 38z"/>
<path style="fill:#99cfa2; stroke:none;" d="M51.6667 39.3333C51.2222 39.7778 52.2778 39.7222 52.3333 39.6667C52.7778 39.2222 51.7222 39.2778 51.6667 39.3333z"/>
<path style="fill:#a0d2a8; stroke:none;" d="M75 39L76 40L75 39z"/>
</svg>
