<svg width="91" height="91" viewBox="0 0 91 91" fill="none" xmlns="http://www.w3.org/2000/svg">
<path d="M5.86666 5.2L0.666664 9.73333V45.8667V82L4.66666 85.8667C6.93333 88 10.1333 90.2667 12 90.6667C15.2 91.4667 15.6 90.9333 17.7333 84.2667C22.1333 70.2667 32 62.8 45.8667 62.8C60 62.9333 71.0667 71.6 74.2667 85.3333C75.3333 90 75.8667 90.6667 78.6667 90.2667C80.5333 90 84 87.7333 86.4 85.0667L90.6667 80.2667V45.7333V11.3333L85.3333 6L80 0.666662H45.6H11.0667L5.86666 5.2ZM52.6667 26.8C58.4 29.4667 63.4667 38.6667 62.1333 44C61.6 46 59.2 49.7333 56.6667 52.2667C52.9333 56 51.3333 56.6667 45.8667 56.6667C31.4667 56.6667 24.4 42 33.3333 31.0667C38.6667 24.6667 45.0667 23.2 52.6667 26.8Z" fill="#2F9E41"/>
</svg>
